<svg id="svg2" xmlns="http://www.w3.org/2000/svg" viewBox="0 0 60 48"><title>life-empty</title><g id="layer1"><rect id="rect3950" x="18" width="6" height="6"/><rect id="rect3950-2" x="12" width="6" height="6"/><rect id="rect3950-6" x="24" y="6" width="6" height="6"/><rect id="rect3950-0" x="30" y="6" width="6" height="6"/><rect id="rect3950-23" x="36" width="6" height="6"/><rect id="rect3950-7" x="42" width="6" height="6"/><rect id="rect3950-07" x="48" width="6" height="6"/><rect id="rect3950-62" x="54" y="6" width="6" height="6"/><rect id="rect3950-5" x="54" y="12" width="6" height="6"/><rect id="rect3950-9" x="6" width="6" height="6"/><rect id="rect3950-57" y="6" width="6" height="6"/><rect id="rect3950-1" y="12" width="6" height="6"/><rect id="rect3950-28" y="18" width="6" height="6"/><rect id="rect3950-72" x="54" y="18" width="6" height="6"/><rect id="rect3950-66" x="6" y="24" width="6" height="6"/><rect id="rect3950-00" x="12" y="30" width="6" height="6"/><rect id="rect3950-3" x="18" y="36" width="6" height="6"/><rect id="rect3950-99" x="24" y="42" width="6" height="6"/><rect id="rect3950-10" x="30" y="42" width="6" height="6"/><rect id="rect3950-38" x="36" y="36" width="6" height="6"/><rect id="rect3950-8" x="42" y="30" width="6" height="6"/><rect id="rect3950-74" x="48" y="24" width="6" height="6"/></g></svg>