<?xml version="1.0" encoding="utf-8"?>
<!-- Generator: Adobe Illustrator 22.1.0, SVG Export Plug-In . SVG Version: 6.00 Build 0)  -->
<svg version="1.1"
	 id="svg2" inkscape:version="0.48.4 r9939" sodipodi:docname="Novo documento 1" xmlns:cc="http://creativecommons.org/ns#" xmlns:dc="http://purl.org/dc/elements/1.1/" xmlns:inkscape="http://www.inkscape.org/namespaces/inkscape" xmlns:rdf="http://www.w3.org/1999/02/22-rdf-syntax-ns#" xmlns:sodipodi="http://sodipodi.sourceforge.net/DTD/sodipodi-0.dtd" xmlns:svg="http://www.w3.org/2000/svg"
	 xmlns="http://www.w3.org/2000/svg" xmlns:xlink="http://www.w3.org/1999/xlink" x="0px" y="0px" width="60px" height="48px"
	 viewBox="0 0 60 48" style="enable-background:new 0 0 60 48;" xml:space="preserve">
<style type="text/css">
	.st0{fill:#FFFFFF;}
	.st1{fill:#9D0000;}
	.st2{fill:#FF0000;}
	.st3{fill:#FF5757;}
</style>
<sodipodi:namedview  bordercolor="#666666" borderlayer="true" borderopacity="1.0" id="base" inkscape:current-layer="layer1" inkscape:cx="25.622065" inkscape:cy="33.052464" inkscape:document-units="px" inkscape:pageopacity="0.0" inkscape:pageshadow="2" inkscape:showpageshadow="false" inkscape:snap-bbox="true" inkscape:window-height="692" inkscape:window-maximized="1" inkscape:window-width="1366" inkscape:window-x="0" inkscape:window-y="24" inkscape:zoom="5.3332631" pagecolor="#ffffff" showgrid="true">
	
		<inkscape:grid  dotted="true" empspacing="2" enabled="true" id="grid2985" snapvisiblegridlinesonly="true" spacingx="6px" spacingy="6px" type="xygrid" visible="true">
		</inkscape:grid>
</sodipodi:namedview>
<g id="layer1" transform="translate(0,-992.36218)" inkscape:groupmode="layer" inkscape:label="Camada 1">
	<rect id="rect2987" x="12" y="1004.4" class="st0" width="6" height="6"/>
	<rect id="rect3950" x="18" y="992.4" width="6" height="6"/>
	<rect id="rect3950-2" x="12" y="992.4" width="6" height="6"/>
	<rect id="rect3950-6" x="24" y="998.4" width="6" height="6"/>
	<rect id="rect3950-0" x="30" y="998.4" width="6" height="6"/>
	<rect id="rect3950-23" x="36" y="992.4" width="6" height="6"/>
	<rect id="rect3950-7" x="42" y="992.4" width="6" height="6"/>
	<rect id="rect3950-07" x="48" y="992.4" width="6" height="6"/>
	<rect id="rect3950-62" x="54" y="998.4" width="6" height="6"/>
	<rect id="rect3950-5" x="54" y="1004.4" width="6" height="6"/>
	<rect id="rect3950-9" x="6" y="992.4" width="6" height="6"/>
	<rect id="rect3950-57" y="998.4" width="6" height="6"/>
	<rect id="rect3950-1" y="1004.4" width="6" height="6"/>
	<rect id="rect3950-28" y="1010.4" width="6" height="6"/>
	<rect id="rect3950-72" x="54" y="1010.4" width="6" height="6"/>
	<rect id="rect3950-66" x="6" y="1016.4" width="6" height="6"/>
	<rect id="rect3950-00" x="12" y="1022.4" width="6" height="6"/>
	<rect id="rect3950-3" x="18" y="1028.4" width="6" height="6"/>
	<rect id="rect3950-99" x="24" y="1034.4" width="6" height="6"/>
	<rect id="rect3950-10" x="30" y="1034.4" width="6" height="6"/>
	<rect id="rect3950-38" x="36" y="1028.4" width="6" height="6"/>
	<rect id="rect3950-8" x="42" y="1022.4" width="6" height="6"/>
	<rect id="rect3950-74" x="48" y="1016.4" width="6" height="6"/>
	<rect id="rect3950-89" x="6" y="998.4" class="st1" width="6" height="6"/>
	<rect id="rect3950-89-7" x="12" y="998.4" class="st2" width="6" height="6"/>
	<rect id="rect3950-89-8" x="18" y="998.4" class="st2" width="6" height="6"/>
	<rect id="rect3950-89-1" x="6" y="1004.4" class="st1" width="6" height="6"/>
	<rect id="rect3950-89-76" x="12" y="1004.4" class="st2" width="6" height="6"/>
	<rect id="rect3950-89-4" x="18" y="1004.4" class="st2" width="6" height="6"/>
	<rect id="rect3950-89-2" x="6" y="1010.4" class="st1" width="6" height="6"/>
	<rect id="rect3950-89-79" x="12" y="1010.4" class="st2" width="6" height="6"/>
	<rect id="rect3950-89-18" x="18" y="1010.4" class="st2" width="6" height="6"/>
	<rect id="rect3950-89-3" x="12" y="1016.4" class="st1" width="6" height="6"/>
	<rect id="rect3950-89-0" x="18" y="1016.4" class="st2" width="6" height="6"/>
	<rect id="rect3950-89-5" x="18" y="1022.4" class="st1" width="6" height="6"/>
	<rect id="rect3950-89-58" x="24" y="1022.4" class="st2" width="6" height="6"/>
	<rect id="rect3950-89-36" x="24" y="1028.4" class="st1" width="6" height="6"/>
	<rect id="rect3950-89-09" x="30" y="1028.4" class="st2" width="6" height="6"/>
	<rect id="rect3950-89-50" x="30" y="1022.4" class="st2" width="6" height="6"/>
	<rect id="rect3950-89-27" x="24" y="1016.4" class="st2" width="6" height="6"/>
	<rect id="rect3950-89-505" x="30" y="1016.4" class="st2" width="6" height="6"/>
	<rect id="rect3950-89-24" x="30" y="1010.4" class="st2" width="6" height="6"/>
	<rect id="rect3950-89-6" x="24" y="1010.4" class="st2" width="6" height="6"/>
	<rect id="rect3950-89-12" x="24" y="1004.4" class="st2" width="6" height="6"/>
	<rect id="rect3950-89-65" x="30" y="1004.4" class="st2" width="6" height="6"/>
	<rect id="rect3950-89-9" x="36" y="1010.4" class="st2" width="6" height="6"/>
	<rect id="rect3950-89-21" x="42" y="1016.4" class="st2" width="6" height="6"/>
	<rect id="rect3950-89-39" x="36" y="1016.4" class="st2" width="6" height="6"/>
	<rect id="rect3950-89-26" x="36" y="1022.4" class="st2" width="6" height="6"/>
	<rect id="rect3950-89-95" x="42" y="1010.4" class="st2" width="6" height="6"/>
	<rect id="rect3950-89-86" x="48" y="1010.4" class="st3" width="6" height="6"/>
	<rect id="rect3950-89-19" x="36" y="1004.4" class="st2" width="6" height="6"/>
	<rect id="rect3950-89-99" x="42" y="1004.4" class="st3" width="6" height="6"/>
	<rect id="rect3950-89-90" x="48" y="1004.4" class="st3" width="6" height="6"/>
	<rect id="rect3950-89-41" x="48" y="998.4" class="st0" width="6" height="6"/>
	<rect id="rect3950-89-33" x="42" y="998.4" class="st3" width="6" height="6"/>
	<rect id="rect3950-89-63" x="36" y="998.4" class="st3" width="6" height="6"/>
</g>
</svg>
